<svg width="695" height="480" viewBox="0 0 695 480" fill="none" xmlns="http://www.w3.org/2000/svg">
<g clip-path="url(#clip0_504_232)">
<rect width="695" height="480" fill="#5B40FF"/>
<mask id="path-1-outside-1_504_232" maskUnits="userSpaceOnUse" x="-155" y="-30" width="994" height="533" fill="black">
<rect fill="white" x="-155" y="-30" width="994" height="533"/>
<path d="M-139.243 179.313C-140.207 150.387 -136.832 123.629 -129.118 99.0414C-121.404 73.9715 -109.834 52.2764 -94.4061 33.9561C-78.9784 15.1537 -59.6939 0.690246 -36.5524 -9.43416C-12.9289 -20.0407 14.0695 -25.3439 44.4427 -25.3439C67.5842 -25.3439 89.5203 -21.7281 110.251 -14.4964C131.464 -7.26464 150.026 3.10081 165.935 16.6C181.845 30.0992 194.38 46.7321 203.54 66.4988C213.183 86.2655 218.004 108.443 218.004 133.03C218.004 158.583 213.906 180.519 205.71 198.839C197.514 217.159 186.666 233.551 173.167 248.015C159.668 261.996 144.24 274.772 126.884 286.343C110.01 297.913 92.8951 309.484 75.539 321.055C58.1829 332.143 41.3089 344.196 24.9171 357.213C8.5252 370.23 -5.93821 385.417 -18.4732 402.773H220.896V491H-150.813C-150.813 461.591 -146.715 436.039 -138.52 414.344C-129.841 392.649 -118.271 373.364 -103.807 356.49C-89.3439 339.134 -72.4699 323.224 -53.1854 308.761C-33.4187 294.298 -12.6878 279.593 9.00732 264.648C20.0959 256.934 31.9077 249.22 44.4427 241.506C56.9776 233.31 68.3073 224.391 78.4317 214.749C89.0382 205.106 97.7163 194.259 104.466 182.206C111.698 170.153 115.313 156.413 115.313 140.985C115.313 116.398 108.082 97.3541 93.6183 83.8549C79.637 69.8736 61.5577 62.8829 39.3805 62.8829C24.435 62.8829 11.659 66.4988 1.05244 73.7305C-9.07195 80.4801 -17.2679 89.6402 -23.5354 101.211C-29.8028 112.3 -34.3829 124.835 -37.2756 138.816C-39.6862 152.315 -40.8915 165.814 -40.8915 179.313H-139.243ZM429.65 315.27L527.278 321.778C519.323 419.406 464.362 498.232 358.779 498.232C211.975 498.232 177.263 360.106 177.263 250.184C177.263 162.68 198.958 1.41339 360.225 1.41339C433.266 1.41339 469.424 34.6792 491.119 66.4988C519.323 108.443 522.939 159.065 525.108 187.991L428.927 195.223C426.034 156.895 421.695 87.4707 360.949 87.4707C300.925 87.4707 288.631 160.511 288.631 258.139C288.631 339.134 298.033 412.174 360.949 412.174C418.079 412.174 426.034 341.304 429.65 315.27ZM659.562 1.41339C812.874 1.41339 834.569 149.663 834.569 250.184C834.569 338.411 818.659 498.232 659.562 498.232C504.803 498.232 484.554 347.089 484.554 250.184C484.554 157.618 502.633 1.41339 659.562 1.41339ZM659.562 87.4707C606.047 87.4707 595.922 145.324 595.922 250.184C595.922 353.598 606.047 412.174 659.562 412.174C713.799 412.174 723.201 352.151 723.201 250.184C723.201 148.94 714.522 87.4707 659.562 87.4707Z"/>
</mask>
<path d="M-139.243 179.313L-143.24 179.447L-143.112 183.313H-139.243V179.313ZM-129.118 99.0414L-125.302 100.239L-125.298 100.228L-125.295 100.218L-129.118 99.0414ZM-94.4061 33.9561L-91.3465 36.5326L-91.33 36.5131L-91.3138 36.4934L-94.4061 33.9561ZM-36.5524 -9.43416L-34.9492 -5.76953L-34.9316 -5.77722L-34.9141 -5.78508L-36.5524 -9.43416ZM110.251 -14.4964L108.934 -10.7196L108.947 -10.7149L108.961 -10.7103L110.251 -14.4964ZM203.54 66.4988L199.911 68.1806L199.928 68.2167L199.945 68.2525L203.54 66.4988ZM205.71 198.839L202.058 197.206L202.058 197.206L205.71 198.839ZM173.167 248.015L176.045 250.793L176.068 250.769L176.091 250.744L173.167 248.015ZM126.884 286.343L124.665 283.014L124.644 283.029L124.622 283.044L126.884 286.343ZM75.539 321.055L77.6926 324.426L77.7254 324.405L77.7578 324.383L75.539 321.055ZM24.9171 357.213L27.4046 360.346L27.4046 360.346L24.9171 357.213ZM-18.4732 402.773L-21.7159 400.431L-26.2962 406.773H-18.4732V402.773ZM220.896 402.773H224.896V398.773H220.896V402.773ZM220.896 491V495H224.896V491H220.896ZM-150.813 491H-154.813V495H-150.813V491ZM-138.52 414.344L-142.233 412.858L-142.248 412.894L-142.261 412.93L-138.52 414.344ZM-103.807 356.49L-100.77 359.093L-100.752 359.072L-100.734 359.051L-103.807 356.49ZM-53.1854 308.761L-55.5474 305.533L-55.5665 305.547L-55.5854 305.561L-53.1854 308.761ZM9.00732 264.648L11.2765 267.942L11.2841 267.936L11.2916 267.931L9.00732 264.648ZM44.4427 241.506L46.5391 244.913L46.5858 244.884L46.6317 244.854L44.4427 241.506ZM78.4317 214.749L75.741 211.789L75.7067 211.82L75.6731 211.852L78.4317 214.749ZM104.466 182.206L101.036 180.148L101.005 180.199L100.976 180.252L104.466 182.206ZM93.6183 83.8549L90.7899 86.6833L90.8386 86.732L90.889 86.7791L93.6183 83.8549ZM1.05244 73.7305L3.27124 77.0587L3.28857 77.0471L3.30578 77.0354L1.05244 73.7305ZM-23.5354 101.211L-20.0531 103.179L-20.0354 103.148L-20.0182 103.116L-23.5354 101.211ZM-37.2756 138.816L-41.1927 138.005L-41.2037 138.059L-41.2133 138.113L-37.2756 138.816ZM-40.8915 179.313V183.313H-36.8915V179.313H-40.8915ZM-135.245 179.18C-136.196 150.649 -132.865 124.347 -125.302 100.239L-132.935 97.8441C-140.799 122.912 -144.218 150.124 -143.24 179.447L-135.245 179.18ZM-125.295 100.218C-117.724 75.612 -106.397 54.4046 -91.3465 36.5326L-97.4657 31.3795C-113.271 50.1482 -125.085 72.3311 -132.941 97.8651L-125.295 100.218ZM-91.3138 36.4934C-76.3022 18.198 -57.5353 4.11192 -34.9492 -5.76953L-38.1557 -13.0988C-61.8525 -2.73143 -81.6547 12.1093 -97.4984 31.4188L-91.3138 36.4934ZM-34.9141 -5.78508C-11.8871 -16.1237 14.5376 -21.3439 44.4427 -21.3439V-29.3439C13.6014 -29.3439 -13.9706 -23.9576 -38.1908 -13.0832L-34.9141 -5.78508ZM44.4427 -21.3439C67.16 -21.3439 88.6488 -17.7957 108.934 -10.7196L111.569 -18.2732C90.3918 -25.6605 68.0083 -29.3439 44.4427 -29.3439V-21.3439ZM108.961 -10.7103C129.734 -3.62835 147.848 6.49874 163.347 19.65L168.523 13.55C152.204 -0.29711 133.194 -10.9009 111.542 -18.2824L108.961 -10.7103ZM163.347 19.65C178.795 32.7574 190.984 48.9163 199.911 68.1806L207.17 64.8169C197.777 44.5479 184.895 27.4409 168.523 13.55L163.347 19.65ZM199.945 68.2525C209.291 87.4114 214.004 108.978 214.004 133.03H222.004C222.004 107.907 217.074 85.1195 207.135 64.7451L199.945 68.2525ZM214.004 133.03C214.004 158.168 209.971 179.519 202.058 197.206L209.361 200.472C217.841 181.518 222.004 158.997 222.004 133.03H214.004ZM202.058 197.206C194.04 215.129 183.436 231.149 170.243 245.285L176.091 250.744C189.896 235.953 200.988 219.19 209.361 200.472L202.058 197.206ZM170.289 245.236C157.003 258.997 141.8 271.591 124.665 283.014L129.103 289.671C146.68 277.953 162.332 264.995 176.045 250.793L170.289 245.236ZM124.622 283.044C107.763 294.604 90.6621 306.165 73.3202 317.727L77.7578 324.383C95.1281 312.803 112.258 301.222 129.146 289.642L124.622 283.044ZM73.3855 317.684C55.9122 328.848 38.9268 340.98 22.4295 354.081L27.4046 360.346C43.691 347.413 60.4537 335.439 77.6926 324.426L73.3855 317.684ZM22.4295 354.081C5.74443 367.331 -8.97149 382.785 -21.7159 400.431L-15.2304 405.115C-2.90493 388.049 11.306 373.13 27.4046 360.346L22.4295 354.081ZM-18.4732 406.773H220.896V398.773H-18.4732V406.773ZM216.896 402.773V491H224.896V402.773H216.896ZM220.896 487H-150.813V495H220.896V487ZM-146.813 491C-146.813 461.95 -142.764 436.898 -134.778 415.758L-142.261 412.93C-150.667 435.18 -154.813 461.232 -154.813 491H-146.813ZM-134.806 415.829C-126.282 394.52 -114.934 375.618 -100.77 359.093L-106.844 353.887C-121.608 371.111 -133.401 390.777 -142.233 412.858L-134.806 415.829ZM-100.734 359.051C-86.4825 341.949 -69.8381 326.251 -50.7854 311.961L-55.5854 305.561C-75.1017 320.198 -92.2053 336.32 -106.88 353.93L-100.734 359.051ZM-50.8233 311.989C-31.0895 297.55 -10.3896 282.867 11.2765 267.942L6.7381 261.354C-14.986 276.319 -35.7479 291.045 -55.5474 305.533L-50.8233 311.989ZM11.2916 267.931C22.3136 260.264 34.0623 252.591 46.5391 244.913L42.3463 238.099C29.7532 245.849 17.8783 253.604 6.72306 261.364L11.2916 267.931ZM46.6317 244.854C59.3555 236.535 70.8782 227.466 81.1903 217.645L75.6731 211.852C65.7364 221.316 54.5998 230.086 42.2537 238.158L46.6317 244.854ZM81.1224 217.709C92.0356 207.787 100.988 196.603 107.956 184.161L100.976 180.252C94.4447 191.915 86.0408 202.426 75.741 211.789L81.1224 217.709ZM107.896 184.264C115.536 171.53 119.313 157.065 119.313 140.985H111.313C111.313 155.761 107.859 168.777 101.036 180.148L107.896 184.264ZM119.313 140.985C119.313 115.577 111.81 95.3627 96.3476 80.9306L90.889 86.7791C104.353 99.3454 111.313 117.218 111.313 140.985H119.313ZM96.4467 81.0264C81.6212 66.2009 62.4776 58.8829 39.3805 58.8829V66.8829C60.6378 66.8829 77.6528 73.5463 90.7899 86.6833L96.4467 81.0264ZM39.3805 58.8829C23.7666 58.8829 10.1736 62.6702 -1.20091 70.4256L3.30578 77.0354C13.1443 70.3273 25.1033 66.8829 39.3805 66.8829V58.8829ZM-1.16636 70.4023C-11.8765 77.5424 -20.5006 87.2099 -27.0525 99.3058L-20.0182 103.116C-14.0352 92.0706 -6.26737 83.4178 3.27124 77.0587L-1.16636 70.4023ZM-27.0176 99.2427C-33.5122 110.733 -38.226 123.666 -41.1927 138.005L-33.3586 139.626C-30.5399 126.003 -26.0935 113.866 -20.0531 103.179L-27.0176 99.2427ZM-41.2133 138.113C-43.6647 151.84 -44.8915 165.575 -44.8915 179.313H-36.8915C-36.8915 166.054 -35.7077 152.79 -33.3379 139.519L-41.2133 138.113ZM-40.8915 175.313H-139.243V183.313H-40.8915V175.313ZM429.65 315.27L429.916 311.278L426.2 311.031L425.688 314.719L429.65 315.27ZM527.278 321.778L531.265 322.103L531.594 318.057L527.544 317.787L527.278 321.778ZM491.119 66.4988L494.439 64.2668L494.431 64.2561L494.424 64.2454L491.119 66.4988ZM525.108 187.991L525.408 191.98L529.396 191.68L529.097 187.692L525.108 187.991ZM428.927 195.223L424.938 195.524L425.239 199.512L429.226 199.212L428.927 195.223ZM429.384 319.261L527.012 325.769L527.544 317.787L429.916 311.278L429.384 319.261ZM523.291 321.453C519.363 369.658 503.853 412.88 476.629 443.981C449.49 474.984 410.47 494.232 358.779 494.232V502.232C412.671 502.232 453.923 482.066 482.649 449.25C511.289 416.531 527.238 371.526 531.265 322.103L523.291 321.453ZM358.779 494.232C286.948 494.232 242.843 460.594 216.46 413.474C189.913 366.064 181.263 304.845 181.263 250.184H173.263C173.263 305.445 181.969 368.25 209.48 417.383C237.153 466.807 283.806 502.232 358.779 502.232V494.232ZM181.263 250.184C181.263 206.634 186.683 145.19 211.848 94.7712C224.402 69.6187 241.814 47.3228 265.823 31.3061C289.806 15.3061 320.608 5.41339 360.225 5.41339V-2.58661C319.209 -2.58661 286.824 7.67907 261.383 24.6511C235.968 41.6065 217.718 65.0964 204.69 91.1986C178.691 143.289 173.263 206.231 173.263 250.184H181.263ZM360.225 5.41339C396.107 5.41339 422.693 13.5753 442.897 25.4707C463.123 37.3787 477.187 53.1647 487.814 68.7521L494.424 64.2454C483.357 48.0133 468.493 31.2566 446.956 18.5768C425.398 5.88441 397.384 -2.58661 360.225 -2.58661V5.41339ZM487.8 68.7308C515.335 109.68 518.942 159.26 521.119 188.291L529.097 187.692C526.935 158.869 523.311 107.205 494.439 64.2668L487.8 68.7308ZM524.808 184.003L428.627 191.234L429.226 199.212L525.408 191.98L524.808 184.003ZM432.915 194.922C431.481 175.917 429.659 148.304 420.336 125.462C415.647 113.975 408.969 103.443 399.271 95.7787C389.511 88.0668 376.957 83.4707 360.949 83.4707V91.4707C375.313 91.4707 386.081 95.5527 394.311 102.056C402.601 108.606 408.578 117.826 412.929 128.486C421.685 149.938 423.48 176.201 424.938 195.524L432.915 194.922ZM360.949 83.4707C345.053 83.4707 332.075 88.3369 321.696 97.3951C311.402 106.38 303.927 119.258 298.503 134.882C287.686 166.038 284.631 209.304 284.631 258.139H292.631C292.631 209.346 295.724 167.277 306.06 137.506C311.212 122.667 318.065 111.183 326.957 103.422C335.765 95.7346 346.832 91.4707 360.949 91.4707V83.4707ZM284.631 258.139C284.631 298.637 286.958 337.778 297.433 366.884C302.691 381.494 310.096 393.855 320.545 402.568C331.064 411.341 344.381 416.174 360.949 416.174V408.174C346.058 408.174 334.606 403.878 325.668 396.424C316.659 388.912 309.917 377.95 304.96 364.175C295.005 336.513 292.631 298.636 292.631 258.139H284.631ZM360.949 416.174C391.676 416.174 409.063 396.907 419.005 375.147C428.877 353.542 431.823 328.695 433.612 315.82L425.688 314.719C423.86 327.878 421.022 351.483 411.729 371.822C402.507 392.007 387.352 408.174 360.949 408.174V416.174ZM659.562 5.41339C697.217 5.41339 726.534 14.5065 749.392 29.4932C772.268 44.492 788.923 65.5577 800.973 89.8793C825.137 138.652 830.569 200.076 830.569 250.184H838.569C838.569 199.772 833.153 136.81 808.141 86.3277C795.604 61.0217 778.089 38.7424 753.778 22.803C729.449 6.85153 698.562 -2.58661 659.562 -2.58661V5.41339ZM830.569 250.184C830.569 294.188 826.576 355.452 803.104 405.597C791.398 430.606 774.907 452.715 751.764 468.582C728.646 484.431 698.633 494.232 659.562 494.232V502.232C700.039 502.232 731.676 492.054 756.288 475.18C780.873 458.324 798.191 434.964 810.35 408.989C834.606 357.167 838.569 294.407 838.569 250.184H830.569ZM659.562 494.232C621.552 494.232 592.061 484.962 569.138 469.767C546.194 454.56 529.581 433.249 517.617 408.79C493.626 359.742 488.554 298.493 488.554 250.184H480.554C480.554 298.781 485.607 361.555 510.43 412.305C522.873 437.744 540.339 460.276 564.718 476.436C589.117 492.609 620.192 502.232 659.562 502.232V494.232ZM488.554 250.184C488.554 204.029 493.086 142.588 516.82 92.8081C528.657 67.9817 545.211 46.1826 568.255 30.5789C591.275 14.9916 621.025 5.41339 659.562 5.41339V-2.58661C619.634 -2.58661 588.276 7.36078 563.77 23.9546C539.288 40.532 521.898 63.5695 509.599 89.3651C485.062 140.829 480.554 203.773 480.554 250.184H488.554ZM659.562 83.4707C645.41 83.4707 633.79 87.3178 624.481 95.0759C615.243 102.774 608.631 114.031 603.881 128.236C594.426 156.506 591.922 197.806 591.922 250.184H599.922C599.922 197.702 602.481 157.645 611.467 130.774C615.937 117.408 621.891 107.648 629.602 101.222C637.242 94.8554 646.955 91.4707 659.562 91.4707V83.4707ZM591.922 250.184C591.922 301.844 594.427 342.96 603.881 371.228C608.63 385.43 615.239 396.728 624.471 404.471C633.777 412.275 645.399 416.174 659.562 416.174V408.174C646.967 408.174 637.255 404.751 629.612 398.341C621.895 391.869 615.938 382.059 611.467 368.691C602.48 341.817 599.922 301.938 599.922 250.184H591.922ZM659.562 416.174C673.916 416.174 685.635 412.179 694.975 404.252C704.238 396.391 710.819 384.955 715.52 370.667C724.877 342.224 727.201 301.112 727.201 250.184H719.201C719.201 301.223 716.823 341.106 707.921 368.167C703.491 381.63 697.552 391.573 689.799 398.153C682.122 404.667 672.326 408.174 659.562 408.174V416.174ZM727.201 250.184C727.201 199.627 725.058 158.339 715.798 129.633C711.147 115.214 704.595 103.616 695.3 95.6242C685.924 87.5633 674.107 83.4707 659.562 83.4707V91.4707C672.497 91.4707 682.374 95.0618 690.084 101.69C697.874 108.388 703.796 118.485 708.185 132.089C717.004 159.428 719.201 199.497 719.201 250.184H727.201Z" fill="#FF7D6B" mask="url(#path-1-outside-1_504_232)"/>
<path d="M336 450V373.2H150.6V284.4L315.6 30H429V291.6H479.4V373.2H429V450H336ZM241.8 291.6H336V144.6H333.6L241.8 289.2V291.6Z" fill="black"/>
</g>
<defs>
<clipPath id="clip0_504_232">
<rect width="695" height="480" fill="white"/>
</clipPath>
</defs>
</svg>
