<svg width="97" height="56" viewBox="0 0 97 56" fill="none" xmlns="http://www.w3.org/2000/svg">
<g clip-path="url(#clip0_508_316)">
<path d="M50.7726 7.34319H54.3393L55.0387 9.44124H57.2066L53.64 0H51.472L47.9053 9.51118H50.0033L50.7726 7.34319ZM52.521 2.30786L53.7099 5.80462H51.2622L52.521 2.30786Z" fill="white"/>
<path d="M63.991 9.09157C64.5505 8.88176 64.9701 8.53208 65.3197 8.11247C65.6694 7.69286 65.9492 7.20332 66.159 6.5739C66.3688 6.01442 66.4387 5.385 66.4387 4.68565C66.4387 3.91637 66.2988 3.21702 66.089 2.65753C65.8792 2.09805 65.5995 1.60851 65.1799 1.1889C64.7603 0.769286 64.3407 0.489546 63.7812 0.27974C63.2916 0.0699351 62.7322 0 62.1027 0H57.9766V9.51118H62.1027C62.8021 9.51118 63.4315 9.37131 63.991 9.09157ZM60.0746 7.7628V1.74838H61.5433C62.0328 1.74838 62.5223 1.81831 62.872 1.95818C63.2217 2.09805 63.5014 2.30786 63.7112 2.5876C63.921 2.86734 64.0609 3.21702 64.2008 3.56669C64.3407 3.91637 64.3407 4.40591 64.3407 4.89546C64.3407 5.385 64.2707 5.87455 64.1308 6.22423C63.991 6.5739 63.8511 6.85364 63.5714 7.13338C63.3616 7.34319 63.0818 7.55299 62.8021 7.62293C62.5223 7.69286 62.2426 7.7628 61.8929 7.7628H60.0746Z" fill="white"/>
<path d="M69.935 0H67.8369V9.51118H69.935V0Z" fill="white"/>
<path d="M50.0033 32.38H47.9053V41.8912H50.0033V32.38Z" fill="white"/>
<path d="M59.7939 41.8912V32.38H57.8357V38.7441L53.8494 32.38H51.8213V41.8912H53.7795V35.5271L57.6958 41.8912H59.7939Z" fill="white"/>
<path d="M68.8156 33.5689C68.396 33.1493 67.9764 32.8696 67.4169 32.6597C66.8574 32.4499 66.298 32.38 65.7385 32.38H61.6123V41.8912H65.7385C66.4378 41.8912 67.0672 41.7513 67.6267 41.5415C68.1862 41.3317 68.6058 40.982 68.9555 40.5624C69.3052 40.1428 69.5849 39.6533 69.7947 39.0238C70.0045 38.4644 70.0745 37.8349 70.0745 37.1356C70.0745 36.3663 69.9346 35.667 69.7248 35.1075C69.515 34.4781 69.1653 33.9885 68.8156 33.5689ZM67.7666 38.6042C67.6267 38.9539 67.4869 39.2336 67.2071 39.5134C66.9973 39.7232 66.7176 39.933 66.4378 40.0029C66.1581 40.0729 65.8783 40.1428 65.5287 40.1428H63.6404V34.1284H65.1091C65.5986 34.1284 66.0882 34.1983 66.4378 34.3382C66.7875 34.4781 67.0672 34.6879 67.277 34.9676C67.4869 35.2473 67.6267 35.597 67.7666 35.9467C67.8365 36.3663 67.9065 36.7859 67.9065 37.2755C67.9764 37.8349 67.9065 38.2546 67.7666 38.6042Z" fill="white"/>
<path d="M78.607 34.1983V32.38H71.4736V41.8912H78.677V40.1428H73.5717V37.8349H78.1874V36.2264H73.5717V34.1983H78.607Z" fill="white"/>
<path d="M88.1183 41.8912L84.8314 36.9258L87.8386 32.38H85.6006L83.6425 35.4572L81.8242 32.38H79.3764L82.4536 36.9258L79.0967 41.8912H81.4745L83.5725 38.6042L85.6706 41.8912H88.1183Z" fill="white"/>
<path d="M53.8504 25.1766C54.4098 24.9668 54.8294 24.6172 55.1791 24.1976C55.5288 23.7779 55.8085 23.2884 56.0183 22.659C56.2281 22.0995 56.2981 21.4701 56.2981 20.7707C56.2981 20.0014 56.1582 19.3021 55.9484 18.7426C55.7386 18.1831 55.4589 17.6936 55.0393 17.274C54.6196 16.8544 54.2 16.5746 53.6405 16.3648C53.151 16.155 52.5915 16.0851 51.9621 16.0851H47.8359V25.5963H51.9621C52.7314 25.5263 53.3608 25.4564 53.8504 25.1766ZM49.934 23.7779V17.7635H51.4026C51.8922 17.7635 52.3817 17.8335 52.7314 17.9733C53.0811 18.1132 53.3608 18.323 53.5706 18.6027C53.7804 18.8825 53.9203 19.2322 54.0602 19.5818C54.1301 20.0014 54.2 20.4211 54.2 20.9106C54.2 21.4002 54.1301 21.8897 53.9902 22.2394C53.8504 22.589 53.7105 22.8688 53.4307 23.1485C53.2209 23.3583 52.9412 23.5681 52.6615 23.6381C52.4517 23.7779 52.102 23.7779 51.8222 23.7779H49.934Z" fill="white"/>
<path d="M64.8996 23.7779H59.7943V21.4701H64.4101V19.8616H59.7943V17.8335H64.8297V16.0851H57.6963V25.5263H64.8996V23.7779Z" fill="white"/>
<path d="M66.0889 18.6726C66.0889 19.0923 66.1589 19.4419 66.3687 19.7916C66.5085 20.0713 66.7184 20.3511 66.9981 20.5609C67.2778 20.7707 67.5576 20.9106 67.9072 21.0504C68.2569 21.1903 68.6066 21.2602 68.9563 21.4001C69.3059 21.4701 69.6556 21.6099 70.0053 21.6799C70.355 21.7498 70.6347 21.8197 70.9145 21.9596C71.1942 22.0995 71.404 22.1694 71.5439 22.3792C71.6837 22.5191 71.8236 22.7289 71.8236 23.0086C71.8236 23.2184 71.7537 23.4282 71.6138 23.5681C71.4739 23.708 71.3341 23.8478 71.1243 23.9178C70.9145 23.9877 70.7047 24.0577 70.4948 24.1276C70.285 24.1276 70.0752 24.1975 69.8654 24.1975C69.5857 24.1975 69.306 24.1975 69.0961 24.1276C68.8164 24.0577 68.6066 23.9877 68.3968 23.8478C68.187 23.708 68.0471 23.4982 67.9072 23.2884C67.7674 23.0786 67.7674 22.7988 67.7674 22.4491H65.7393C65.7393 23.0086 65.8092 23.5681 66.0889 23.9877C66.2987 24.4073 66.5785 24.757 66.9981 25.0367C67.3478 25.3165 67.8373 25.5263 68.3269 25.6662C68.8164 25.806 69.3059 25.876 69.8654 25.876C70.4948 25.876 71.0543 25.806 71.5439 25.6662C72.0334 25.5263 72.453 25.3165 72.8027 25.0367C73.1524 24.757 73.3622 24.4773 73.572 24.0577C73.7119 23.708 73.8517 23.2884 73.8517 22.8688C73.8517 22.3093 73.7119 21.8897 73.5021 21.54C73.2922 21.1903 73.0125 20.9106 72.7328 20.7008C72.453 20.491 72.1034 20.3511 71.8236 20.2812C71.5439 20.2112 71.2641 20.1413 71.0543 20.0714C70.4948 19.9315 70.0053 19.7916 69.5857 19.7217C69.236 19.6517 68.9563 19.5119 68.7465 19.4419C68.5367 19.372 68.3968 19.2321 68.3269 19.0923C68.2569 18.9524 68.187 18.8125 68.187 18.6726C68.187 18.4628 68.2569 18.323 68.3269 18.1831C68.3968 18.0432 68.5367 17.9733 68.6765 17.8334C68.8164 17.7635 68.9563 17.6936 69.1661 17.6236C69.3759 17.5537 69.5158 17.5537 69.6556 17.5537C69.9354 17.5537 70.1452 17.5537 70.355 17.6236C70.5648 17.6936 70.7746 17.7635 70.9145 17.8334C71.0543 17.9733 71.1942 18.1132 71.3341 18.253C71.404 18.4628 71.4739 18.6726 71.5439 18.9524H73.572C73.572 18.3929 73.5021 17.9034 73.2923 17.5537C73.0824 17.1341 72.8027 16.8543 72.453 16.5746C72.1034 16.2949 71.6837 16.155 71.2641 16.0151C70.7746 15.8752 70.355 15.8752 69.8654 15.8752C69.4458 15.8752 69.0262 15.9452 68.6066 16.0151C68.187 16.155 67.7674 16.2949 67.4876 16.5746C67.138 16.7844 66.8582 17.1341 66.6484 17.4838C66.1589 17.7635 66.0889 18.253 66.0889 18.6726Z" fill="white"/>
<path d="M77.0688 16.0851H74.9707V25.5963H77.0688V16.0851Z" fill="white"/>
<path d="M79.7266 24.3374C80.1462 24.757 80.6358 25.1067 81.1952 25.3864C81.7547 25.6662 82.4541 25.7361 83.1534 25.7361C83.643 25.7361 84.0626 25.6662 84.5521 25.4564C84.9717 25.2466 85.3913 24.8969 85.811 24.4773L86.0208 25.5263H87.3495V20.421H83.3632V21.9596H85.4613C85.3913 22.6589 85.1815 23.1485 84.8319 23.4982C84.4822 23.8478 83.9227 24.0577 83.2234 24.0577C82.7338 24.0577 82.3841 23.9877 82.0345 23.7779C81.6848 23.5681 81.475 23.3583 81.2652 23.0786C81.0554 22.7988 80.9155 22.4491 80.8456 22.0295C80.7756 21.6099 80.7057 21.2602 80.7057 20.8406C80.7057 20.421 80.7756 20.0014 80.8456 19.6517C80.9155 19.2321 81.0554 18.8825 81.2652 18.6027C81.475 18.323 81.7547 18.0432 82.0345 17.9034C82.3841 17.6936 82.7338 17.6236 83.2234 17.6236C83.7129 17.6236 84.1325 17.7635 84.4822 18.0432C84.8319 18.323 85.0417 18.6726 85.1815 19.2321H87.1397C87.0698 18.6726 86.9299 18.1831 86.7201 17.7635C86.5103 17.3439 86.1606 16.9942 85.811 16.7145C85.4613 16.4347 85.0417 16.2249 84.5521 16.085C84.0626 15.9452 83.643 15.8752 83.1534 15.8752C82.4541 15.8752 81.7547 16.0151 81.1952 16.2949C80.6358 16.5746 80.1462 16.9243 79.7266 17.3439C79.307 17.7635 79.0273 18.323 78.8174 18.9524C78.6076 19.5818 78.4678 20.2112 78.4678 20.9106C78.4678 21.6099 78.6076 22.2393 78.8174 22.8688C79.0273 23.3583 79.307 23.9178 79.7266 24.3374Z" fill="white"/>
<path d="M90.9162 19.2322L94.9025 25.5263H97.0005V16.0851H95.0424V22.4492H94.9724L91.0561 16.0851H88.958V25.5263H90.9162V19.2322Z" fill="white"/>
<path d="M3.9863 50.8429C3.84643 50.703 3.63663 50.6331 3.42682 50.5632C3.21702 50.4932 3.00721 50.4233 2.72747 50.3533C2.51766 50.2834 2.30786 50.2834 2.02812 50.2135C1.81831 50.1435 1.60851 50.1435 1.46864 50.0736C1.32877 50.0037 1.1889 49.9337 1.04903 49.7939C0.979092 49.654 0.909157 49.5141 0.909157 49.3743C0.909157 49.1644 0.979092 49.0246 1.04903 48.8847C1.11896 48.7448 1.1889 48.6749 1.32877 48.605C1.46864 48.535 1.60851 48.4651 1.74838 48.4651C1.88825 48.4651 2.02812 48.3952 2.23792 48.3952C2.65753 48.3952 2.93727 48.4651 3.21702 48.6749C3.49676 48.8847 3.63663 49.1644 3.63663 49.5841H4.33598C4.33598 49.3043 4.26604 49.0246 4.12617 48.7448C3.9863 48.535 3.84643 48.3252 3.70656 48.1854C3.49676 48.0455 3.28695 47.9056 3.07715 47.8357C2.7974 47.7657 2.5876 47.7657 2.23792 47.7657C1.95818 47.7657 1.74838 47.7657 1.46864 47.8357C1.1889 47.9056 0.979092 47.9756 0.839221 48.1154C0.629416 48.2553 0.489546 48.3952 0.349676 48.605C0.209805 48.8148 0.13987 49.0945 0.13987 49.3743C0.13987 49.654 0.209805 49.8638 0.27974 50.0037C0.349676 50.1435 0.489546 50.2834 0.699351 50.4233C0.839221 50.5631 1.04903 50.6331 1.25883 50.703C1.46864 50.773 1.67844 50.8429 1.95818 50.9128C2.16799 50.9828 2.37779 50.9828 2.65753 51.0527C2.86734 51.1226 3.07715 51.1926 3.21702 51.2625C3.35689 51.3324 3.49676 51.4723 3.63663 51.5422C3.70656 51.6821 3.7765 51.822 3.7765 52.0318C3.7765 52.2416 3.70656 52.3815 3.63663 52.5213C3.56669 52.6612 3.42682 52.7311 3.28695 52.8011C3.14708 52.871 3.00721 52.9409 2.7974 52.9409C2.65753 52.9409 2.44773 53.0109 2.30786 53.0109C2.09805 53.0109 1.88825 53.0109 1.67844 52.9409C1.46864 52.871 1.32877 52.8011 1.11896 52.6612C0.979092 52.5213 0.839221 52.3815 0.769286 52.2416C0.769286 52.1717 0.699351 51.9619 0.699351 51.6821H0C0 52.0318 0.0699351 52.3115 0.209805 52.5913C0.349676 52.871 0.489546 53.0808 0.699351 53.2207C0.909157 53.3606 1.1889 53.5004 1.46864 53.5704C1.74838 53.6403 2.02812 53.7102 2.37779 53.7102C2.65753 53.7102 2.86734 53.7102 3.14708 53.6403C3.42682 53.5704 3.63663 53.5004 3.84643 53.3606C4.05624 53.2207 4.26604 53.0808 4.33598 52.8011C4.47585 52.5913 4.54578 52.3115 4.54578 52.0318C4.54578 51.752 4.47585 51.5422 4.40591 51.3324C4.33598 51.1226 4.19611 50.9828 3.9863 50.8429Z" fill="white"/>
<path d="M8.88234 50.9127C8.81241 50.633 8.74247 50.3532 8.6026 50.1434C8.46273 49.9336 8.25293 49.7238 8.04312 49.584C7.83332 49.4441 7.48364 49.3741 7.13396 49.3741C6.85422 49.3741 6.57448 49.4441 6.36468 49.514C6.15487 49.6539 5.94507 49.7938 5.73526 49.9336C5.59539 50.1434 5.45552 50.3532 5.31565 50.633C5.24572 50.9127 5.17578 51.1925 5.17578 51.4722C5.17578 51.7519 5.24572 52.1016 5.31565 52.3114C5.38559 52.5912 5.52546 52.801 5.66533 53.0108C5.8052 53.2206 6.015 53.3604 6.29474 53.4304C6.50455 53.5703 6.85422 53.5703 7.13396 53.5703C7.62351 53.5703 7.97319 53.4304 8.32286 53.2206C8.6026 53.0108 8.81241 52.6611 8.95228 52.1716H8.25293C8.18299 52.4513 8.04312 52.6611 7.90325 52.801C7.69345 52.9408 7.48364 53.0108 7.2039 53.0108C6.99409 53.0108 6.78429 52.9408 6.64442 52.8709C6.50455 52.801 6.36468 52.731 6.22481 52.5912C6.08494 52.4513 6.015 52.3114 6.015 52.1716C5.94507 52.0317 5.94507 51.8219 5.94507 51.682H9.02221C8.95228 51.4722 8.95228 51.1925 8.88234 50.9127ZM5.87513 51.1225C5.87513 50.9827 5.94507 50.8428 5.94507 50.7029C6.015 50.563 6.08494 50.4232 6.15487 50.3532C6.22481 50.2134 6.36468 50.1434 6.50455 50.0735C6.64442 50.0036 6.78429 50.0036 6.99409 50.0036C7.13396 50.0036 7.34377 50.0036 7.48364 50.0735C7.62351 50.1434 7.76338 50.2134 7.83332 50.3532C7.90325 50.4232 8.04312 50.563 8.11306 50.7029C8.18299 50.8428 8.18299 50.9827 8.25293 51.1925H5.87513V51.1225Z" fill="white"/>
<path d="M10.421 47.9055H9.72168V53.5703H10.421V47.9055Z" fill="white"/>
<path d="M14.9663 50.9127C14.8964 50.633 14.8265 50.3532 14.6866 50.1434C14.5467 49.9336 14.3369 49.7238 14.1271 49.584C13.9173 49.4441 13.5676 49.3741 13.2179 49.3741C12.9382 49.3741 12.6585 49.4441 12.4487 49.514C12.2389 49.6539 12.0291 49.7938 11.8192 49.9336C11.6794 50.1434 11.5395 50.3532 11.3996 50.633C11.3297 50.9127 11.2598 51.1925 11.2598 51.4722C11.2598 51.7519 11.3297 52.1016 11.3996 52.3114C11.4696 52.5912 11.6094 52.801 11.7493 53.0108C11.8892 53.2206 12.099 53.3604 12.3787 53.4304C12.5885 53.5703 12.9382 53.5703 13.2179 53.5703C13.7075 53.5703 14.0572 53.4304 14.4068 53.2206C14.6866 53.0108 14.8964 52.6611 15.0363 52.1716H14.3369C14.267 52.4513 14.1271 52.6611 13.9872 52.801C13.7774 52.9408 13.5676 53.0108 13.2879 53.0108C13.0781 53.0108 12.8683 52.9408 12.7284 52.8709C12.5885 52.801 12.4487 52.731 12.3088 52.5912C12.1689 52.4513 12.099 52.3114 12.099 52.1716C12.0291 52.0317 12.0291 51.8219 12.0291 51.682H15.1062C15.0363 51.4722 14.9663 51.1925 14.9663 50.9127ZM11.9591 51.1225C11.9591 50.9827 12.0291 50.8428 12.0291 50.7029C12.099 50.563 12.1689 50.4232 12.2389 50.3532C12.3088 50.2134 12.4487 50.1434 12.5885 50.0735C12.7284 50.0036 12.8683 50.0036 13.0781 50.0036C13.2179 50.0036 13.4278 50.0036 13.5676 50.0735C13.7075 50.1434 13.8474 50.2134 13.9173 50.3532C13.9872 50.4232 14.1271 50.563 14.197 50.7029C14.267 50.8428 14.267 50.9827 14.3369 51.1925H11.9591V51.1225Z" fill="white"/>
<path d="M18.7426 49.9336V49.4441H15.5256V50.0735H17.8335L15.3857 53.0807V53.5703H18.8825V53.0108H16.225L18.7426 49.9336Z" fill="white"/>
<path d="M20.2814 47.9055H19.582V48.7447H20.2814V47.9055Z" fill="white"/>
<path d="M20.2814 49.4441H19.582V53.5703H20.2814V49.4441Z" fill="white"/>
<path d="M24.5469 50.0036C24.4071 49.7938 24.1973 49.6539 23.9175 49.514C23.6378 49.3741 23.358 49.3741 23.0783 49.3741C22.7286 49.3741 22.4489 49.4441 22.2391 49.514C22.0293 49.584 21.7495 49.7938 21.6097 50.0036C21.4698 50.2134 21.3299 50.4232 21.26 50.7029C21.1901 50.9827 21.1201 51.2624 21.1201 51.5421C21.1201 51.8219 21.1901 52.1016 21.26 52.3814C21.3299 52.6611 21.4698 52.8709 21.6097 53.0807C21.7495 53.2905 21.9593 53.4304 22.2391 53.5703C22.5188 53.7101 22.7986 53.7101 23.0783 53.7101C23.428 53.7101 23.7077 53.6402 23.9175 53.5703C24.1973 53.4304 24.4071 53.2905 24.5469 53.0807C24.6868 52.8709 24.8267 52.6611 24.8966 52.3814C24.9665 52.1016 25.0365 51.8219 25.0365 51.5421C25.0365 51.2624 24.9665 50.9827 24.8966 50.7029C24.8966 50.4232 24.7567 50.2134 24.5469 50.0036ZM24.2672 52.1716C24.1973 52.3814 24.1273 52.5212 23.9875 52.6611C23.8476 52.801 23.7077 52.8709 23.5678 52.9408C23.428 53.0108 23.2182 53.0108 23.0783 53.0108C22.9384 53.0108 22.7286 53.0108 22.5888 52.9408C22.4489 52.8709 22.309 52.801 22.1691 52.6611C22.0293 52.5212 21.9593 52.3814 21.8894 52.1716C21.8195 51.9617 21.8195 51.7519 21.8195 51.4722C21.8195 51.1925 21.8195 50.9827 21.8894 50.7728C21.9593 50.563 22.0293 50.4232 22.1691 50.2833C22.309 50.1434 22.4489 50.0735 22.5888 50.0036C22.7286 49.9336 22.9384 49.9336 23.0783 49.9336C23.2881 49.9336 23.428 50.0036 23.5678 50.0036C23.7077 50.0735 23.8476 50.1434 23.9875 50.2833C24.1273 50.4232 24.1973 50.563 24.2672 50.7728C24.3371 50.9827 24.3371 51.1925 24.3371 51.4722C24.3371 51.7519 24.3371 52.0317 24.2672 52.1716Z" fill="white"/>
<path d="M29.0231 49.7938C28.8832 49.6539 28.7433 49.584 28.6034 49.514C28.3936 49.4441 28.1838 49.3741 27.9041 49.3741C27.2747 49.3741 26.8551 49.6539 26.5753 50.1434V49.514H25.876V53.6402H26.5753V51.3323C26.5753 51.1225 26.5753 50.9827 26.6453 50.8428C26.7152 50.7029 26.7851 50.563 26.8551 50.4232C26.925 50.2833 27.0649 50.2134 27.2047 50.1434C27.3446 50.0735 27.5544 50.0735 27.7642 50.0735C28.044 50.0735 28.2538 50.1434 28.3936 50.2833C28.5335 50.4232 28.6034 50.633 28.6034 50.9127V53.7101H29.3028V50.9827C29.3028 50.7729 29.3028 50.563 29.2329 50.3532C29.1629 50.0735 29.093 49.9336 29.0231 49.7938Z" fill="white"/>
<path d="M33.8482 50.9127C33.7782 50.633 33.7083 50.3532 33.5684 50.1434C33.4286 49.9336 33.2187 49.7238 33.0089 49.584C32.7991 49.4441 32.4495 49.3741 32.0998 49.3741C31.82 49.3741 31.5403 49.4441 31.3305 49.514C31.1207 49.6539 30.9109 49.7938 30.7011 49.9336C30.5612 50.1434 30.4213 50.3532 30.2815 50.633C30.2115 50.9127 30.1416 51.1925 30.1416 51.4722C30.1416 51.7519 30.2115 52.1016 30.2815 52.3114C30.3514 52.5912 30.4913 52.801 30.6311 53.0108C30.771 53.2206 30.9808 53.3604 31.2606 53.4304C31.4704 53.5703 31.82 53.5703 32.0998 53.5703C32.5893 53.5703 32.939 53.4304 33.2887 53.2206C33.5684 53.0108 33.7782 52.6611 33.9181 52.1716H33.2187C33.1488 52.4513 33.0089 52.6611 32.8691 52.801C32.6593 52.9408 32.4495 53.0108 32.1697 53.0108C31.9599 53.0108 31.7501 52.9408 31.6102 52.8709C31.4704 52.801 31.3305 52.731 31.1906 52.5912C31.0508 52.4513 30.9808 52.3114 30.9808 52.1716C30.9109 52.0317 30.9109 51.8219 30.9109 51.682H33.988C33.9181 51.4722 33.9181 51.1925 33.8482 50.9127ZM30.841 51.1225C30.841 50.9827 30.9109 50.8428 30.9109 50.7029C30.9808 50.563 31.0508 50.4232 31.1207 50.3532C31.1906 50.2134 31.3305 50.1434 31.4704 50.0735C31.6102 50.0036 31.7501 50.0036 31.9599 50.0036C32.0998 50.0036 32.3096 50.0036 32.4495 50.0735C32.5893 50.1434 32.7292 50.2134 32.7991 50.3532C32.8691 50.4232 33.0089 50.563 33.0789 50.7029C33.1488 50.8428 33.1488 50.9827 33.2187 51.1925H30.841V51.1225Z" fill="white"/>
<path d="M40.8422 52.1017C40.7723 52.3115 40.6324 52.4514 40.4925 52.5913C40.3527 52.7311 40.2128 52.871 40.003 52.9409C39.7932 53.0109 39.5834 53.0808 39.3036 53.0808C38.954 53.0808 38.6742 53.0109 38.3945 52.871C38.1147 52.7311 37.9749 52.5913 37.7651 52.3815C37.6252 52.1717 37.4853 51.8919 37.4154 51.6122C37.3455 51.3324 37.2755 50.9828 37.2755 50.703C37.2755 50.4233 37.3455 50.1435 37.4154 49.8638C37.4853 49.5841 37.6252 49.3743 37.7651 49.0945C37.9049 48.8847 38.1147 48.6749 38.3945 48.605C38.6043 48.4651 38.954 48.3952 39.2337 48.3952C39.6533 48.3952 40.003 48.4651 40.2827 48.6749C40.5625 48.8847 40.7723 49.1644 40.8422 49.5841H41.6115C41.5416 49.3043 41.4716 49.0246 41.3318 48.8148C41.1919 48.605 41.052 48.3952 40.8422 48.2553C40.6324 48.1154 40.4226 47.9756 40.1429 47.9056C39.8631 47.8357 39.5834 47.7657 39.3036 47.7657C38.884 47.7657 38.4644 47.8357 38.1147 47.9755C37.7651 48.1154 37.4853 48.3252 37.2755 48.605C37.0657 48.8847 36.8559 49.1644 36.786 49.5841C36.6461 49.9337 36.5762 50.3533 36.5762 50.773C36.5762 51.1926 36.6461 51.5422 36.716 51.9619C36.8559 52.3115 36.9958 52.6612 37.2056 52.871C37.4154 53.1507 37.6951 53.3606 38.0448 53.5004C38.3945 53.6403 38.7442 53.7102 39.2337 53.7102C39.9331 53.7102 40.5625 53.5004 40.9821 53.0808C41.4017 52.6612 41.6814 52.1017 41.7514 51.4024H40.9821C40.9821 51.6821 40.9122 51.8919 40.8422 52.1017Z" fill="white"/>
<path d="M45.8077 50.0036C45.6678 49.7938 45.458 49.6539 45.1783 49.514C44.8985 49.3741 44.6188 49.3741 44.339 49.3741C43.9894 49.3741 43.7096 49.4441 43.4998 49.514C43.2201 49.6539 43.0103 49.7938 42.8704 50.0036C42.7305 50.2134 42.5907 50.4232 42.5207 50.7029C42.4508 50.9827 42.3809 51.2624 42.3809 51.5421C42.3809 51.8219 42.4508 52.1016 42.5207 52.3814C42.5907 52.6611 42.7305 52.8709 42.8704 53.0807C43.0103 53.2905 43.2201 53.4304 43.4998 53.5703C43.7796 53.7101 44.0593 53.7101 44.339 53.7101C44.6887 53.7101 44.9685 53.6402 45.1783 53.5703C45.458 53.4304 45.6678 53.2905 45.8077 53.0807C45.9476 52.8709 46.0874 52.6611 46.1574 52.3814C46.2273 52.1016 46.2972 51.8219 46.2972 51.5421C46.2972 51.2624 46.2273 50.9827 46.1574 50.7029C46.1574 50.4232 46.0175 50.2134 45.8077 50.0036ZM45.5279 52.1716C45.458 52.3814 45.3881 52.5212 45.2482 52.6611C45.1083 52.801 44.9685 52.8709 44.8286 52.9408C44.6887 53.0108 44.4789 53.0108 44.339 53.0108C44.1992 53.0108 43.9894 53.0108 43.8495 52.9408C43.7096 52.8709 43.5698 52.801 43.4299 52.6611C43.29 52.5212 43.2201 52.3814 43.1501 52.1716C43.0802 51.9617 43.0802 51.7519 43.0802 51.4722C43.0802 51.1925 43.0802 50.9827 43.1501 50.7728C43.2201 50.563 43.29 50.4232 43.4299 50.2833C43.5698 50.1434 43.7096 50.0735 43.8495 50.0036C43.9894 49.9336 44.1992 49.9336 44.339 49.9336C44.5489 49.9336 44.6887 50.0036 44.8286 50.0036C44.9685 50.0735 45.1083 50.1434 45.2482 50.2833C45.3881 50.4232 45.458 50.563 45.5279 50.7728C45.5979 50.9827 45.5979 51.1925 45.5979 51.4722C45.5979 51.7519 45.5979 52.0317 45.5279 52.1716Z" fill="white"/>
<path d="M52.5217 49.6539C52.3819 49.584 52.242 49.514 52.1021 49.4441C51.9622 49.3741 51.7524 49.3741 51.5426 49.3741C51.2629 49.3741 51.0531 49.4441 50.7733 49.584C50.5635 49.7238 50.3537 49.8637 50.2139 50.0735C50.1439 49.7938 50.0041 49.6539 49.7942 49.514C49.5844 49.3741 49.3746 49.3741 49.0949 49.3741C48.5354 49.3741 48.0459 49.584 47.7661 50.0735V49.4441H47.1367V53.5703H47.8361V51.0526C47.8361 50.9827 47.8361 50.8428 47.906 50.7728C47.9759 50.633 47.9759 50.563 48.1158 50.4232C48.1857 50.2833 48.3256 50.2134 48.4655 50.1434C48.6054 50.0735 48.7452 50.0036 48.955 50.0036C49.0949 50.0036 49.2348 50.0036 49.3047 50.0735C49.3746 50.1434 49.5145 50.2134 49.5145 50.2833C49.5844 50.3532 49.5844 50.4931 49.6544 50.563C49.6544 50.7029 49.7243 50.7729 49.7243 50.9127V53.6402H50.4237V51.0526C50.4237 50.7029 50.4936 50.4931 50.7034 50.2833C50.9132 50.0735 51.193 50.0036 51.4727 50.0036C51.6126 50.0036 51.7524 50.0036 51.8923 50.0735C51.9622 50.1434 52.1021 50.2134 52.1021 50.2833C52.172 50.3532 52.172 50.4931 52.242 50.563C52.242 50.7029 52.242 50.7729 52.242 50.9127V53.6402H52.9413V50.633C52.9413 50.4232 52.9413 50.2134 52.8714 50.0735C52.7315 49.8637 52.6616 49.7238 52.5217 49.6539Z" fill="white"/>
<path d="M57.4171 50.0036C57.2772 49.7937 57.0674 49.6539 56.8576 49.514C56.6478 49.3741 56.368 49.3042 56.0184 49.3042C55.7386 49.3042 55.4589 49.3741 55.2491 49.4441C55.0393 49.514 54.8295 49.7238 54.6896 49.9336V49.3741H53.9902V55.0389H54.6896V52.9408C54.7595 53.0807 54.8295 53.1506 54.9693 53.2206C55.1092 53.2905 55.1791 53.3604 55.319 53.4304C55.4589 53.5003 55.5987 53.5003 55.6687 53.5003C55.8085 53.5003 55.8785 53.5003 56.0184 53.5003C56.2981 53.5003 56.5778 53.4304 56.8576 53.3604C57.0674 53.2206 57.2772 53.0807 57.4171 52.8709C57.5569 52.6611 57.6968 52.4513 57.7667 52.1715C57.8367 51.8918 57.9066 51.6121 57.9066 51.3323C57.9066 51.0526 57.8367 50.7728 57.7667 50.4931C57.6968 50.4232 57.5569 50.2134 57.4171 50.0036ZM57.0674 52.1016C56.9974 52.3114 56.9275 52.4513 56.8576 52.5911C56.7876 52.731 56.6478 52.8709 56.5079 52.9408C56.368 53.0108 56.1582 53.0807 55.9484 53.0807C55.7386 53.0807 55.5288 53.0108 55.319 52.9408C55.1791 52.8709 55.0393 52.731 54.8994 52.5911C54.8295 52.4513 54.6896 52.3114 54.6896 52.1016C54.6197 51.8918 54.6197 51.7519 54.6197 51.5421C54.6197 51.3323 54.6197 51.1924 54.6896 50.9826C54.7595 50.7728 54.8295 50.633 54.8994 50.4931C54.9693 50.3532 55.1092 50.2134 55.319 50.1434C55.4589 50.0735 55.6687 50.0036 55.8785 50.0036C56.0883 50.0036 56.2981 50.0735 56.438 50.1434C56.5778 50.2134 56.7177 50.3532 56.8576 50.4931C56.9275 50.633 57.0674 50.7728 57.0674 50.9826C57.1373 51.1924 57.1373 51.3323 57.1373 51.5421C57.1373 51.682 57.1373 51.8918 57.0674 52.1016Z" fill="white"/>
<path d="M61.9624 52.9408C61.9624 52.8709 61.9624 52.731 61.9624 52.5912V50.4931C61.9624 50.2833 61.8924 50.0735 61.8225 49.9336C61.7525 49.7938 61.6127 49.6539 61.4728 49.584C61.3329 49.514 61.1231 49.4441 60.9833 49.4441C60.7735 49.4441 60.6336 49.3741 60.4238 49.3741C60.214 49.3741 60.0042 49.3741 59.7944 49.4441C59.5846 49.514 59.3748 49.584 59.2349 49.6539C59.095 49.7938 58.9551 49.9336 58.8852 50.0735C58.8153 50.2833 58.7453 50.4931 58.7453 50.7029H59.4447C59.4447 50.4232 59.5846 50.2134 59.7244 50.0735C59.9342 49.9336 60.144 49.9336 60.4238 49.9336C60.5637 49.9336 60.6336 49.9336 60.7735 49.9336C60.9133 49.9336 60.9833 50.0036 61.0532 50.0036C61.1231 50.0735 61.1931 50.1434 61.263 50.2134C61.3329 50.2833 61.3329 50.4232 61.3329 50.563C61.3329 50.7029 61.263 50.7728 61.1931 50.8428C61.1231 50.9127 60.9833 50.9827 60.9133 50.9827C60.7735 51.0526 60.6336 51.0526 60.4937 51.0526C60.3538 51.0526 60.144 51.1225 59.9342 51.1225C59.7244 51.1225 59.5846 51.1925 59.4447 51.2624C59.3048 51.3323 59.095 51.4023 59.0251 51.4722C58.8852 51.5421 58.8153 51.682 58.7453 51.8219C58.6754 51.9617 58.6055 52.1716 58.6055 52.3814C58.6055 52.5912 58.6754 52.731 58.7453 52.9408C58.8153 53.0807 58.8852 53.2206 59.0251 53.2905C59.1649 53.3604 59.3048 53.4304 59.4447 53.5003C59.5846 53.5703 59.7944 53.5703 60.0042 53.5703C60.2839 53.5703 60.5637 53.5003 60.7735 53.4304C61.0532 53.3604 61.263 53.1506 61.4029 52.9408C61.4029 53.1506 61.4728 53.2905 61.5427 53.4304C61.6127 53.5003 61.7525 53.5703 61.9624 53.5703C62.1722 53.5703 62.312 53.5003 62.4519 53.5003V52.9408C62.382 52.9408 62.312 52.9408 62.2421 52.9408C62.0323 53.0807 61.9624 53.0108 61.9624 52.9408ZM61.263 52.1716C61.263 52.2415 61.263 52.3814 61.1931 52.4513C61.1231 52.5912 61.0532 52.6611 60.9833 52.731C60.9133 52.801 60.7735 52.8709 60.5636 52.9408C60.4238 53.0108 60.214 53.0108 60.0042 53.0108C59.8643 53.0108 59.7944 53.0108 59.7244 53.0108C59.6545 53.0108 59.5146 52.9408 59.4447 52.9408C59.3748 52.8709 59.3048 52.801 59.2349 52.731C59.1649 52.6611 59.1649 52.5912 59.1649 52.4513C59.1649 52.3114 59.2349 52.1716 59.3048 52.0317C59.3748 51.9617 59.5146 51.8918 59.5846 51.8219C59.7244 51.7519 59.8643 51.7519 60.0042 51.682C60.144 51.682 60.2839 51.6121 60.4937 51.6121C60.6336 51.6121 60.7735 51.5421 60.9133 51.5421C61.0532 51.5421 61.1931 51.4722 61.263 51.4023V52.1716Z" fill="white"/>
<path d="M65.8082 51.5421C65.6683 51.4722 65.5285 51.4023 65.3886 51.3323C65.2487 51.2624 65.0389 51.2624 64.8991 51.1925C64.7592 51.1225 64.5494 51.1225 64.4095 51.0526C64.2696 51.0526 64.1298 50.9827 63.9899 50.9127C63.85 50.8428 63.7801 50.7728 63.6402 50.7029C63.5703 50.633 63.5004 50.563 63.5004 50.4232C63.5004 50.2833 63.5004 50.2134 63.5703 50.1434C63.6402 50.0735 63.7102 50.0036 63.7801 50.0036C63.85 49.9336 63.9899 49.9336 64.0598 49.9336C64.1298 49.9336 64.2696 49.9336 64.3396 49.9336C64.4794 49.9336 64.5494 49.9336 64.6893 50.0036C64.8291 50.0036 64.8991 50.0735 64.969 50.1434C65.0389 50.2134 65.1089 50.2833 65.1788 50.3532C65.2487 50.4232 65.2487 50.563 65.2487 50.7029H65.9481C65.9481 50.4232 65.8781 50.2134 65.8082 50.0735C65.7383 49.9336 65.5984 49.7938 65.4585 49.6539C65.3187 49.584 65.1089 49.514 64.969 49.4441C64.7592 49.3741 64.5494 49.3741 64.3396 49.3741C64.1298 49.3741 63.9899 49.3741 63.7801 49.4441C63.5703 49.514 63.4304 49.584 63.2905 49.6539C63.1507 49.7238 63.0108 49.8637 62.9409 50.0036C62.8709 50.1434 62.801 50.3532 62.801 50.563C62.801 50.8428 62.8709 51.0526 63.0108 51.1925C63.1507 51.3323 63.2906 51.4722 63.5004 51.5421C63.7102 51.6121 63.92 51.682 64.1298 51.7519C64.3396 51.8219 64.5494 51.8219 64.7592 51.8918C64.969 51.9617 65.1089 52.0317 65.2487 52.1016C65.3886 52.1716 65.4585 52.3114 65.4585 52.5212C65.4585 52.6611 65.4585 52.731 65.3886 52.801C65.3187 52.8709 65.2487 52.9408 65.1788 53.0108C65.1089 53.0807 64.969 53.0807 64.8291 53.0807C64.6893 53.0807 64.6193 53.0807 64.4794 53.0807C64.3396 53.0807 64.1997 53.0807 64.0598 53.0108C63.92 53.0108 63.7801 52.9408 63.7102 52.8709C63.6402 52.801 63.5004 52.731 63.4304 52.5912C63.3605 52.5212 63.3605 52.3814 63.3605 52.2415H62.6611C62.6611 52.5212 62.7311 52.731 62.801 52.8709C62.8709 53.0807 63.0108 53.2206 63.1507 53.2905C63.2906 53.4304 63.5004 53.5003 63.7102 53.5003C63.92 53.5703 64.1298 53.5703 64.3396 53.5703C64.5494 53.5703 64.7592 53.5703 64.969 53.5003C65.1788 53.4304 65.3886 53.3604 65.5285 53.2905C65.6683 53.2206 65.8082 53.0807 65.9481 52.8709C66.018 52.731 66.088 52.5212 66.088 52.2415C66.088 52.0317 66.018 51.8918 65.9481 51.7519C66.018 51.7519 65.8781 51.6121 65.8082 51.5421Z" fill="white"/>
<path d="M69.7959 51.5421C69.656 51.4722 69.5162 51.4023 69.3763 51.3323C69.2364 51.2624 69.0266 51.2624 68.8867 51.1925C68.7469 51.1225 68.5371 51.1225 68.3972 51.0526C68.2573 51.0526 68.1174 50.9827 67.9776 50.9127C67.8377 50.8428 67.7678 50.7728 67.6978 50.7029C67.6279 50.633 67.558 50.563 67.558 50.4232C67.558 50.2833 67.558 50.2134 67.6279 50.1434C67.6978 50.0735 67.7678 50.0036 67.8377 50.0036C67.9076 49.9336 68.0475 49.9336 68.1175 49.9336C68.1874 49.9336 68.3273 49.9336 68.3972 49.9336C68.5371 49.9336 68.607 49.9336 68.7469 50.0036C68.8867 50.0036 68.9567 50.0735 69.0266 50.1434C69.0965 50.2134 69.1665 50.2833 69.2364 50.3532C69.3063 50.4232 69.3063 50.563 69.3063 50.7029H70.0057C70.0057 50.4232 69.9358 50.2134 69.8658 50.0735C69.7959 49.9336 69.656 49.7938 69.5162 49.6539C69.3763 49.584 69.1665 49.514 69.0266 49.4441C68.8168 49.3741 68.607 49.3741 68.3972 49.3741C68.1874 49.3741 68.0475 49.3741 67.8377 49.4441C67.6279 49.514 67.488 49.584 67.3482 49.6539C67.2083 49.7238 67.0684 49.8637 66.9985 50.0036C66.9286 50.1434 66.8586 50.3532 66.8586 50.563C66.8586 50.8428 66.9286 51.0526 67.0684 51.1925C67.2083 51.3323 67.3482 51.4722 67.558 51.5421C67.7678 51.6121 67.9776 51.682 68.1874 51.7519C68.3972 51.8219 68.607 51.8219 68.8168 51.8918C69.0266 51.9617 69.1665 52.0317 69.3063 52.1016C69.4462 52.1716 69.5162 52.3114 69.5162 52.5212C69.5162 52.6611 69.5162 52.731 69.4462 52.801C69.3763 52.8709 69.3063 52.9408 69.2364 53.0108C69.1665 53.0807 69.0266 53.0807 68.8867 53.0807C68.7469 53.0807 68.6769 53.0807 68.5371 53.0807C68.3972 53.0807 68.2573 53.0807 68.1175 53.0108C67.9776 53.0108 67.8377 52.9408 67.7678 52.8709C67.6978 52.801 67.558 52.731 67.488 52.5912C67.4181 52.4513 67.4181 52.3814 67.4181 52.2415H66.7188C66.7188 52.5212 66.7887 52.731 66.8586 52.8709C66.9286 53.0807 67.0684 53.2206 67.2083 53.2905C67.3482 53.4304 67.558 53.5003 67.7678 53.5003C67.9776 53.5703 68.1874 53.5703 68.3972 53.5703C68.607 53.5703 68.8168 53.5703 69.0266 53.5003C69.2364 53.4304 69.4462 53.3604 69.5861 53.2905C69.726 53.2206 69.8658 53.0807 70.0057 52.8709C70.0756 52.731 70.1456 52.5212 70.1456 52.2415C70.1456 52.0317 70.0756 51.8918 70.0057 51.7519C70.0057 51.7519 69.8658 51.6121 69.7959 51.5421Z" fill="white"/>
<path d="M74.2012 50.0036C74.0614 49.7938 73.8516 49.6539 73.5718 49.514C73.2921 49.3741 73.0123 49.3741 72.7326 49.3741C72.3829 49.3741 72.1032 49.4441 71.8934 49.514C71.6136 49.6539 71.4038 49.7938 71.264 50.0036C71.1241 50.2134 70.9842 50.4232 70.9143 50.7029C70.8444 50.9827 70.7744 51.2624 70.7744 51.5421C70.7744 51.8219 70.8444 52.1016 70.9143 52.3814C70.9842 52.6611 71.1241 52.8709 71.264 53.0807C71.4038 53.2905 71.6136 53.4304 71.8934 53.5703C72.1731 53.7101 72.4529 53.7101 72.7326 53.7101C73.0823 53.7101 73.362 53.6402 73.5718 53.5703C73.8516 53.4304 74.0614 53.2905 74.2012 53.0807C74.3411 52.8709 74.481 52.6611 74.5509 52.3814C74.6208 52.1016 74.6908 51.8219 74.6908 51.5421C74.6908 51.2624 74.6208 50.9827 74.5509 50.7029C74.481 50.4232 74.3411 50.2134 74.2012 50.0036ZM73.9215 52.1716C73.8516 52.3814 73.7816 52.5212 73.6418 52.6611C73.5019 52.801 73.362 52.8709 73.2221 52.9408C73.0823 53.0108 72.8725 53.0108 72.7326 53.0108C72.5927 53.0108 72.3829 53.0108 72.2431 52.9408C72.1032 52.8709 71.9633 52.801 71.8234 52.6611C71.6836 52.5212 71.6136 52.3814 71.5437 52.1716C71.4738 51.9617 71.4738 51.7519 71.4738 51.4722C71.4738 51.1925 71.4738 50.9827 71.5437 50.7728C71.6136 50.563 71.6836 50.4232 71.8234 50.2833C71.9633 50.1434 72.1032 50.0735 72.2431 50.0036C72.3829 49.9336 72.5927 49.9336 72.7326 49.9336C72.9424 49.9336 73.0823 50.0036 73.2221 50.0036C73.362 50.0735 73.5019 50.1434 73.6418 50.2833C73.7816 50.4232 73.8516 50.563 73.9215 50.7728C73.9914 50.9827 73.9914 51.1925 73.9914 51.4722C73.9914 51.7519 73.9914 52.0317 73.9215 52.1716Z" fill="white"/>
<path d="M80.7053 50.0036C80.6354 49.8637 80.4955 49.7938 80.4256 49.7239C80.2857 49.6539 80.2157 49.584 80.0759 49.5141C79.936 49.4441 79.8661 49.4441 79.7262 49.3742C79.5863 49.3742 79.5164 49.3742 79.3765 49.3742C79.0968 49.3742 78.817 49.4441 78.5373 49.5141C78.2576 49.584 78.1177 49.7938 77.9778 50.0036C77.838 50.2134 77.6981 50.4232 77.6281 50.7029C77.5582 50.9827 77.4883 51.2624 77.4883 51.5422C77.4883 51.8219 77.5582 52.1016 77.6281 52.3814C77.6981 52.6611 77.838 52.8709 77.9778 53.0807C78.1177 53.2905 78.3275 53.4304 78.5373 53.5703C78.7471 53.7102 79.0269 53.7801 79.3765 53.7801C79.6563 53.7801 79.936 53.7102 80.1458 53.6402C80.3556 53.5703 80.5654 53.3605 80.7053 53.1507V53.7102H81.4046V48.0454H80.7053V50.0036ZM80.7053 52.1016C80.6354 52.3115 80.5654 52.4513 80.4955 52.5912C80.4256 52.7311 80.2857 52.8709 80.0759 52.9409C79.936 53.0108 79.7262 53.0807 79.5164 53.0807C79.3066 53.0807 79.0968 53.0108 78.9569 52.9409C78.817 52.8709 78.6772 52.7311 78.5373 52.5912C78.4674 52.4513 78.3275 52.3115 78.3275 52.1016C78.2576 51.8918 78.2576 51.752 78.2576 51.5422C78.2576 51.3324 78.2576 51.1226 78.3275 50.9827C78.3974 50.7729 78.4674 50.633 78.5373 50.4931C78.6072 50.3533 78.7471 50.2134 78.887 50.1435C79.0269 50.0735 79.2367 50.0036 79.4465 50.0036C79.6563 50.0036 79.8661 50.0735 80.0759 50.1435C80.2157 50.2134 80.3556 50.3533 80.4955 50.4931C80.6354 50.633 80.7053 50.7729 80.7053 50.9827C80.7752 51.1925 80.7752 51.3324 80.7752 51.5422C80.7752 51.752 80.7053 51.8918 80.7053 52.1016Z" fill="white"/>
<path d="M82.5928 48.7447H83.0823C83.0823 48.8147 83.0823 48.9546 83.0823 49.0245C83.0823 49.0944 83.0124 49.2343 83.0124 49.3042C82.9424 49.3742 82.9425 49.4441 82.8725 49.514C82.8026 49.584 82.7326 49.584 82.6627 49.584V50.0036C82.8026 50.0036 82.9425 50.0036 83.0823 49.9336C83.2222 49.8637 83.2921 49.7938 83.3621 49.6539C83.432 49.514 83.5019 49.4441 83.5019 49.3042C83.5019 49.1644 83.5719 49.0245 83.5719 48.8846V47.9755H82.6627V48.7447H82.5928Z" fill="white"/>
<path d="M89.2374 48.6749C89.0276 48.3952 88.7479 48.1854 88.3982 48.0455C88.0485 47.9056 87.6289 47.7657 87.2093 47.7657C86.7897 47.7657 86.3701 47.8357 86.0204 48.0455C85.6707 48.1854 85.391 48.4651 85.1812 48.6749C84.9714 48.9546 84.7616 49.2344 84.6916 49.654C84.5518 50.0037 84.5518 50.3533 84.5518 50.773C84.5518 51.1926 84.6217 51.5422 84.6916 51.8919C84.8315 52.2416 84.9714 52.5913 85.1812 52.871C85.391 53.1507 85.6707 53.3606 86.0204 53.5004C86.3701 53.6403 86.7897 53.7102 87.2093 53.7102C87.6289 53.7102 88.0485 53.6403 88.3982 53.5004C88.7479 53.3606 89.0276 53.1507 89.2374 52.871C89.4472 52.5913 89.657 52.3115 89.727 51.8919C89.8668 51.5422 89.8668 51.1926 89.8668 50.773C89.8668 50.3533 89.7969 50.0037 89.727 49.654C89.657 49.2344 89.4472 48.9546 89.2374 48.6749ZM89.0276 51.6122C88.9577 51.8919 88.8178 52.1717 88.6779 52.3815C88.5381 52.5913 88.3283 52.8011 88.0485 52.9409C87.7688 53.0808 87.489 53.1507 87.1394 53.1507C86.7897 53.1507 86.5099 53.0808 86.2302 52.9409C85.9505 52.8011 85.7407 52.5913 85.6008 52.3815C85.4609 52.1717 85.321 51.8919 85.2511 51.6122C85.1812 51.3324 85.1112 51.0527 85.1112 50.773C85.1112 50.4932 85.1812 50.2135 85.2511 49.9337C85.321 49.654 85.4609 49.3743 85.6008 49.1644C85.7407 48.9546 85.9505 48.7448 86.2302 48.605C86.5099 48.4651 86.7897 48.3952 87.1394 48.3952C87.489 48.3952 87.7688 48.4651 88.0485 48.605C88.3283 48.7448 88.5381 48.9546 88.6779 49.1644C88.8178 49.3743 88.9577 49.654 89.0276 49.9337C89.0975 50.2135 89.1675 50.4932 89.1675 50.773C89.1675 51.0527 89.0975 51.3324 89.0276 51.6122Z" fill="white"/>
<path d="M91.3355 50.3532V49.514H90.7061V53.6402H91.4054V51.7519C91.4054 51.4722 91.4054 51.2624 91.4753 51.0526C91.5453 50.8428 91.6152 50.7029 91.7551 50.563C91.895 50.4232 92.0348 50.2833 92.2446 50.2134C92.4544 50.1434 92.6642 50.0735 92.944 50.0735V49.3741C92.5943 49.3741 92.2446 49.4441 92.0348 49.584C91.7551 49.7238 91.5453 50.0036 91.3355 50.3532Z" fill="white"/>
<path d="M96.8595 50.7029C96.7896 50.4232 96.6497 50.2134 96.5098 50.0036C96.37 49.7938 96.1602 49.6539 95.8804 49.514C95.6007 49.3741 95.3209 49.3741 95.0412 49.3741C94.6915 49.3741 94.4118 49.4441 94.202 49.514C93.9222 49.6539 93.7124 49.7938 93.5726 50.0036C93.4327 50.2134 93.2928 50.4232 93.2229 50.7029C93.1529 50.9827 93.083 51.2624 93.083 51.5421C93.083 51.8219 93.1529 52.1016 93.2229 52.3814C93.2928 52.6611 93.4327 52.8709 93.5726 53.0807C93.7124 53.2905 93.9222 53.4304 94.202 53.5703C94.4817 53.7101 94.7614 53.7101 95.0412 53.7101C95.3909 53.7101 95.6706 53.6402 95.8804 53.5703C96.1602 53.4304 96.37 53.2905 96.5098 53.0807C96.6497 52.8709 96.7896 52.6611 96.8595 52.3814C96.9294 52.1016 96.9994 51.8219 96.9994 51.5421C96.9994 51.2624 96.9994 50.9127 96.8595 50.7029ZM96.2301 52.1716C96.1602 52.3814 96.0902 52.5212 95.9503 52.6611C95.8105 52.801 95.6706 52.8709 95.5307 52.9408C95.3909 53.0108 95.1811 53.0108 95.0412 53.0108C94.9013 53.0108 94.6915 53.0108 94.5516 52.9408C94.4118 52.8709 94.2719 52.801 94.132 52.6611C93.9922 52.5212 93.9222 52.3814 93.8523 52.1716C93.7824 51.9617 93.7824 51.7519 93.7824 51.4722C93.7824 51.1925 93.7824 50.9827 93.8523 50.7728C93.9222 50.563 93.9922 50.4232 94.132 50.2833C94.2719 50.1434 94.4118 50.0735 94.5516 50.0036C94.6915 49.9336 94.9013 49.9336 95.0412 49.9336C95.251 49.9336 95.3909 50.0036 95.5307 50.0036C95.6706 50.0735 95.8105 50.1434 95.9503 50.2833C96.0902 50.4232 96.1602 50.563 96.2301 50.7728C96.3 50.9827 96.3 51.1925 96.3 51.4722C96.3 51.7519 96.3 52.0317 96.2301 52.1716Z" fill="white"/>
<path d="M0 41.9611H41.9611V0H0V41.9611ZM39.6532 2.30786V30.6316C36.2264 16.7145 25.2466 5.73468 11.3295 2.30786H39.6532ZM2.30786 2.86734C22.5191 3.00721 38.9539 19.442 39.0937 39.6532H2.30786V2.86734Z" fill="white"/>
</g>
<defs>
<clipPath id="clip0_508_316">
<rect width="97" height="55.1788" fill="white"/>
</clipPath>
</defs>
</svg>
