<svg width="695" height="480" viewBox="0 0 695 480" fill="none" xmlns="http://www.w3.org/2000/svg">
<g clip-path="url(#clip0_109_461)">
<rect width="695" height="480" fill="#5B40FF"/>
<path d="M81.8043 422.526H91.0643C56.5402 468.031 7.70677 492 -50.672 492C-183.442 492 -244 367.088 -244 251.006C-244 188.476 -227.598 130.3 -197.847 87.2115C-178.272 58.7494 -153.544 37.8742 -124.692 25.0641C-126.879 28.6012 -128.937 32.3035 -130.831 36.1535C-132.214 38.9171 -133.571 41.7764 -134.808 44.6704C-135.128 45.4612 -135.517 46.3651 -135.88 47.2863C-141.154 61.0698 -147.016 86.1773 -147.016 86.1773L-121.873 92.1913L-114.411 93.9556L-107.01 95.7198L-99.0127 97.6317L-89.597 99.8826L-78.8585 102.429L-68.8376 104.81C-68.4226 102.594 -67.973 100.43 -67.4283 98.3618C-66.7625 95.5286 -65.9412 92.8692 -65.1198 90.3054C-64.2897 88.1154 -63.5116 85.9775 -62.7162 83.9351L-62.0936 82.3882C-61.2204 80.2242 -60.2866 78.095 -59.3787 75.9831C-58.713 74.4362 -58.0645 72.8805 -57.442 71.3249C-56.9924 70.169 -56.4909 69.0827 -56.0413 67.9616C-52.3321 59.5924 -47.8102 52.4747 -42.5447 46.565C-36.5961 39.8731 -29.7916 34.8585 -22.0446 31.5213C-19.2087 30.2525 -16.3641 29.2356 -13.4072 28.5143C-8.39238 27.1672 -3.23929 26.4546 2.14728 26.4546C3.86786 26.4546 5.53658 26.5067 7.17934 26.5328C20.3388 27.1672 31.3021 30.1482 40.1558 35.5625C43.4586 37.5701 46.4675 39.8992 49.1823 42.5672C53.0645 46.452 56.3413 50.8843 58.7796 55.8293C60.9584 60.1399 62.6185 64.8764 63.6733 69.9604C64.8751 75.4269 65.5063 81.4148 65.5063 87.8112C65.5063 100.074 63.6474 111.485 60.0419 122.105C56.9985 131.135 52.2604 140.295 45.7671 149.568C44.6172 151.201 43.4153 152.853 42.1876 154.513C41.7294 155.156 41.2365 155.721 40.735 156.355C39.7062 157.737 38.6081 159.049 37.4322 160.466C36.8616 161.231 36.2304 161.987 35.5387 162.725C34.3456 164.177 33.1092 165.654 31.7776 167.158C29.9274 169.235 27.982 171.338 25.8204 173.502C20.8662 178.742 15.3759 184.122 9.26308 189.658C-4.35461 202.164 -21.1109 216.356 -41.0057 232.321C-63.356 250.328 -82.1959 267.231 -97.3526 282.901C-110.149 296.111 -120.749 308.443 -129.179 319.863C-130.831 321.992 -132.309 324.104 -133.788 326.233L-134.851 327.936C-136.71 330.778 -138.439 333.655 -140.047 336.714C-147.863 351.262 -153.215 368.009 -156.069 386.903C-156.587 390.292 -157.02 393.786 -157.435 397.375C-157.642 399.826 -157.876 402.407 -158.057 404.936C-158.42 410.663 -158.662 416.504 -158.662 422.526H81.8043ZM387.498 305.523L386.27 312.406C375.877 368.348 350.717 395.594 309.406 395.594C306.042 395.594 302.912 395.385 299.765 394.985L299.912 394.577L292.684 392.769C237.115 379.142 226.039 296.007 223.895 256.803C223.895 256.055 223.878 255.316 223.817 254.647C223.653 251.18 223.532 248.094 223.48 245.47V236.145L223.532 233.138C224.578 195.846 233.985 86.3599 309.406 86.3599C351.339 86.3599 375.791 112.936 386.27 170.017L387.498 176.839L466.515 166.141C461.016 189.78 458.189 215.018 458.189 240.959C458.189 265.945 460.99 291.366 466.766 315.9L387.498 305.523ZM651.542 395.594C569.698 395.594 565.608 266.762 565.608 240.959C565.608 215.174 569.698 86.3599 651.542 86.3599C733.387 86.3599 737.58 215.174 737.58 240.959C737.58 266.762 733.387 395.594 651.542 395.594ZM798.881 77.1824C764.029 26.6892 713.12 0 651.542 0C590.042 0 539.134 26.6892 504.29 77.1824C494.511 91.3396 486.168 107.218 479.449 124.321C456.148 44.8268 395.651 0 309.406 0C247.802 0 196.945 26.6892 162.11 77.1824C157.648 83.6657 153.446 90.5662 149.642 97.71C149.253 105.332 148.475 112.649 147.109 119.671V119.715C146.037 125.546 144.601 131.23 142.872 136.688C140.52 144.171 137.46 151.523 133.794 158.649C132.955 160.17 132.142 161.717 131.269 163.264C129.609 166.289 127.836 169.235 125.969 172.146C124.611 174.223 123.289 176.257 121.853 178.247L121.81 178.325C121.395 178.908 120.919 179.507 120.453 180.116C111.642 191.778 98.9063 206.214 82.3058 223.274C80.7667 224.847 79.2104 226.437 77.585 228.054C74.8787 230.756 72.1033 233.52 69.2414 236.292C66.5698 238.882 63.8462 241.498 61.0016 244.14C57.4827 247.417 53.7648 250.841 49.9259 254.178C47.5655 256.438 45.0581 258.671 42.594 260.8C40.0779 263.025 37.5706 265.233 34.9767 267.397C29.4605 272.142 23.7627 276.965 17.866 281.867C10.4044 288.133 0.815765 296.458 -10.8652 306.992C-22.5721 317.516 -29.4544 325.52 -40.6339 341.016H49.6752L57.0417 341.059H130.655L130.897 340.008L131.269 341.059H131.641C136.638 356.677 143.071 371.824 150.922 386.06V386.642C154.371 392.943 158.133 398.992 162.11 404.815C196.945 455.282 247.897 481.988 309.406 481.988C394.959 481.988 456.771 435.953 479.692 357.128C507.662 427.549 563.862 481.988 651.542 481.988C713.12 481.988 764.029 455.282 798.881 404.815C828.607 361.665 845 303.481 845 240.959C845 178.412 828.607 120.262 798.881 77.1824Z" fill="#FF7D6B"/>
</g>
<defs>
<clipPath id="clip0_109_461">
<rect width="695" height="480" fill="white"/>
</clipPath>
</defs>
</svg>
