<svg width="1089" height="492" viewBox="0 0 1089 492" fill="none" xmlns="http://www.w3.org/2000/svg">
<path d="M325.804 422.526H335.064C300.54 468.031 251.707 492 193.328 492C60.5577 492 0 367.088 0 251.006C0 188.476 16.4017 130.3 46.1531 87.2115C65.728 58.7494 90.456 37.8742 119.308 25.0641C117.121 28.6012 115.063 32.3035 113.169 36.1535C111.786 38.9171 110.429 41.7764 109.192 44.6704C108.872 45.4612 108.483 46.3651 108.12 47.2863C102.846 61.0698 96.9839 86.1773 96.9839 86.1773L122.127 92.1913L129.589 93.9556L136.99 95.7198L144.987 97.6317L154.403 99.8826L165.141 102.429L175.162 104.81C175.577 102.594 176.027 100.43 176.572 98.3618C177.237 95.5286 178.059 92.8692 178.88 90.3054C179.71 88.1154 180.488 85.9775 181.284 83.9351L181.906 82.3882C182.78 80.2242 183.713 78.095 184.621 75.9831C185.287 74.4362 185.935 72.8805 186.558 71.3249C187.008 70.169 187.509 69.0827 187.959 67.9616C191.668 59.5924 196.19 52.4747 201.455 46.565C207.404 39.8731 214.208 34.8585 221.955 31.5213C224.791 30.2525 227.636 29.2356 230.593 28.5143C235.608 27.1672 240.761 26.4546 246.147 26.4546C247.868 26.4546 249.537 26.5067 251.179 26.5328C264.339 27.1672 275.302 30.1482 284.156 35.5625C287.459 37.5701 290.467 39.8992 293.182 42.5672C297.064 46.452 300.341 50.8843 302.78 55.8293C304.958 60.1399 306.618 64.8764 307.673 69.9604C308.875 75.4269 309.506 81.4148 309.506 87.8112C309.506 100.074 307.647 111.485 304.042 122.105C300.998 131.135 296.26 140.295 289.767 149.568C288.617 151.201 287.415 152.853 286.188 154.513C285.729 155.156 285.237 155.721 284.735 156.355C283.706 157.737 282.608 159.049 281.432 160.466C280.862 161.231 280.23 161.987 279.539 162.725C278.346 164.177 277.109 165.654 275.778 167.158C273.927 169.235 271.982 171.338 269.82 173.502C264.866 178.742 259.376 184.122 253.263 189.658C239.645 202.164 222.889 216.356 202.994 232.321C180.644 250.328 161.804 267.231 146.647 282.901C133.851 296.111 123.251 308.443 114.821 319.863C113.169 321.992 111.691 324.104 110.212 326.233L109.149 327.936C107.29 330.778 105.561 333.655 103.953 336.714C96.1365 351.262 90.7846 368.009 87.9314 386.903C87.4126 390.292 86.9803 393.786 86.5653 397.375C86.3578 399.826 86.1243 402.407 85.9427 404.936C85.5796 410.663 85.3375 416.504 85.3375 422.526H325.804ZM631.498 305.523L630.27 312.406C619.877 368.348 594.717 395.594 553.406 395.594C550.042 395.594 546.912 395.385 543.765 394.985L543.912 394.577L536.684 392.769C481.115 379.142 470.039 296.006 467.895 256.803C467.895 256.055 467.878 255.316 467.817 254.647C467.653 251.18 467.532 248.094 467.48 245.47V236.145L467.532 233.138C468.578 195.846 477.985 86.3599 553.406 86.3599C595.339 86.3599 619.791 112.936 630.27 170.017L631.498 176.839L710.515 166.141C705.016 189.78 702.189 215.018 702.189 240.959C702.189 265.945 704.99 291.366 710.765 315.9L631.498 305.523ZM895.542 395.594C813.698 395.594 809.608 266.762 809.608 240.959C809.608 215.174 813.698 86.3599 895.542 86.3599C977.387 86.3599 981.58 215.174 981.58 240.959C981.58 266.762 977.387 395.594 895.542 395.594ZM1042.88 77.1824C1008.03 26.6892 957.12 0 895.542 0C834.042 0 783.134 26.6892 748.29 77.1824C738.511 91.3396 730.168 107.218 723.449 124.321C700.148 44.8268 639.651 0 553.406 0C491.802 0 440.945 26.6892 406.11 77.1824C401.648 83.6657 397.446 90.5662 393.642 97.71C393.253 105.332 392.475 112.649 391.109 119.671V119.715C390.037 125.546 388.601 131.23 386.872 136.688C384.52 144.171 381.46 151.523 377.794 158.649C376.955 160.17 376.142 161.717 375.269 163.264C373.609 166.289 371.836 169.235 369.969 172.146C368.611 174.223 367.289 176.257 365.853 178.247L365.81 178.325C365.395 178.907 364.919 179.507 364.453 180.116C355.642 191.778 342.906 206.214 326.306 223.274C324.767 224.847 323.21 226.437 321.585 228.054C318.879 230.756 316.103 233.52 313.241 236.292C310.57 238.882 307.846 241.498 305.002 244.14C301.483 247.417 297.765 250.841 293.926 254.178C291.566 256.438 289.058 258.671 286.594 260.8C284.078 263.025 281.571 265.233 278.977 267.397C273.46 272.142 267.763 276.965 261.866 281.867C254.404 288.133 244.816 296.458 233.135 306.992C221.428 317.516 214.546 325.52 203.366 341.016H293.675L301.042 341.059H374.655L374.897 340.008L375.269 341.059H375.641C380.638 356.677 387.071 371.824 394.922 386.06V386.642C398.371 392.943 402.133 398.992 406.11 404.815C440.945 455.282 491.897 481.988 553.406 481.988C638.959 481.988 700.771 435.953 723.692 357.128C751.662 427.549 807.862 481.988 895.542 481.988C957.12 481.988 1008.03 455.282 1042.88 404.815C1072.61 361.665 1089 303.481 1089 240.959C1089 178.412 1072.61 120.262 1042.88 77.1824Z" fill="#FF7D6B"/>
</svg>
