<svg width="792" height="522" viewBox="0 0 792 522" fill="none" xmlns="http://www.w3.org/2000/svg">
<g style="mix-blend-mode:multiply">
<path d="M421 261.5L526.749 153.248L666.599 15.9407C676.954 5.7337 690.995 0 705.635 0C720.274 0 734.315 5.7337 744.67 15.9407L775.137 45.9897C785.485 56.2028 791.299 70.051 791.299 84.4901C791.299 98.9292 785.485 112.777 775.137 122.99L638 261.5L776.406 399.484C786.393 409.378 792 422.771 792 436.732C792 450.693 786.393 464.086 776.406 473.98L743.401 506.533C738.447 511.436 732.561 515.326 726.081 517.98C719.6 520.634 712.652 522 705.635 522C698.617 522 691.669 520.634 685.188 517.98C678.708 515.326 672.822 511.436 667.869 506.533L422.443 264.471L421 261.5Z" fill="#F2F5F9"/>
</g>
<g style="mix-blend-mode:multiply">
<path d="M638 261.326L529.047 368.466L388.934 506.247C378.505 516.342 364.459 522 349.825 522C335.192 522 321.145 516.342 310.716 506.247L280.193 476.231C269.824 466.03 264 452.197 264 437.774C264 423.35 269.824 409.518 280.193 399.316L421.153 261.535L279.769 122.503C269.801 112.558 264.213 99.1553 264.213 85.1918C264.213 71.2283 269.801 57.8255 279.769 47.8804L312.836 15.3633C322.887 5.524 336.491 0 350.673 0C364.855 0 378.459 5.524 388.51 15.3633L633.125 257.366L638 261.326Z" fill="#F2F5F9"/>
</g>
<g style="mix-blend-mode:multiply">
<path d="M374 261.326L265.047 368.466L124.934 506.247C114.505 516.342 100.459 522 85.8251 522C71.1916 522 57.1449 516.342 46.7164 506.247L16.1925 476.231C5.82427 466.03 1.66824e-05 452.197 1.66824e-05 437.774C1.66824e-05 423.35 5.82427 409.518 16.1925 399.316L157.153 261.535L15.7686 122.503C5.80088 112.558 0.213084 99.1553 0.213084 85.1918C0.213084 71.2283 5.80088 57.8255 15.7686 47.8804L48.8361 15.3633C58.8865 5.524 72.491 0 86.673 0C100.855 0 114.459 5.524 124.51 15.3633L369.125 257.366L374 261.326Z" fill="#F2F5F9"/>
</g>
</svg>
