<svg width="792" height="447" viewBox="0 0 792 447" fill="none" xmlns="http://www.w3.org/2000/svg">
<g style="mix-blend-mode:multiply">
<path d="M421 208.5L526.749 100.248L666.599 -37.0593C676.954 -47.2663 690.995 -53 705.635 -53C720.274 -53 734.315 -47.2663 744.67 -37.0593L775.137 -7.01026C785.485 3.20278 791.299 17.051 791.299 31.4901C791.299 45.9292 785.485 59.7774 775.137 69.9904L638 208.5L776.406 346.484C786.393 356.378 792 369.771 792 383.732C792 397.693 786.393 411.086 776.406 420.98L743.401 453.533C738.447 458.436 732.561 462.326 726.081 464.98C719.6 467.634 712.652 469 705.635 469C698.617 469 691.669 467.634 685.188 464.98C678.708 462.326 672.822 458.436 667.869 453.533L422.443 211.471L421 208.5Z" fill="#EEEAEC"/>
</g>
<g style="mix-blend-mode:multiply">
<path d="M638 208.326L529.047 315.466L388.934 453.247C378.505 463.342 364.459 469 349.825 469C335.192 469 321.145 463.342 310.716 453.247L280.193 423.231C269.824 413.03 264 399.197 264 384.774C264 370.35 269.824 356.518 280.193 346.316L421.153 208.535L279.769 69.5031C269.801 59.5581 264.213 46.1553 264.213 32.1918C264.213 18.2283 269.801 4.82549 279.769 -5.11957L312.836 -37.6367C322.887 -47.476 336.491 -53 350.673 -53C364.855 -53 378.459 -47.476 388.51 -37.6367L633.125 204.366L638 208.326Z" fill="#EEEAEC"/>
</g>
<g style="mix-blend-mode:multiply">
<path d="M374 208.326L265.047 315.466L124.934 453.247C114.505 463.342 100.459 469 85.8251 469C71.1916 469 57.1449 463.342 46.7164 453.247L16.1925 423.231C5.82427 413.03 1.66824e-05 399.197 1.66824e-05 384.774C1.66824e-05 370.35 5.82427 356.518 16.1925 346.316L157.153 208.535L15.7686 69.5031C5.80088 59.5581 0.213084 46.1553 0.213084 32.1918C0.213084 18.2283 5.80088 4.82549 15.7686 -5.11957L48.8361 -37.6367C58.8865 -47.476 72.491 -53 86.673 -53C100.855 -53 114.459 -47.476 124.51 -37.6367L369.125 204.366L374 208.326Z" fill="#EEEAEC"/>
</g>
</svg>
